<svg width="60" height="66" viewBox="0 0 60 66" fill="none" xmlns="http://www.w3.org/2000/svg">
<path fill-rule="evenodd" clip-rule="evenodd" d="M37.4053 52.8279C37.0308 52.6398 36.6404 52.5011 36.2645 52.3123C34.6496 51.501 32.7125 50.4658 31.0974 49.6707C29.8003 49.0321 28.4298 48.3894 27.4935 47.2314C27.1672 46.828 27.0739 46.2821 26.8777 45.8154C26.725 45.4524 24.685 37.53 24.6711 37.4544C24.6442 37.3088 24.6415 37.1552 24.6711 37.0101C24.682 36.9568 24.7864 37.0421 24.8132 37.0895C24.9804 37.3852 25.572 38.8589 25.7527 39.2947C25.8588 39.5507 26.5451 41.3323 26.8224 41.8729C27.0258 42.2695 27.8692 44.5013 28.1448 45.1967C28.3263 45.6549 28.4638 46.1083 28.7566 46.5095C29.234 47.1637 29.8852 47.5612 30.5329 48.0207C30.9548 48.32 36.2147 51.6784 36.8921 52.1497C37.1041 52.2971 37.3155 52.4318 37.5237 52.586C37.5374 52.5961 37.8036 52.745 37.8 52.7486C37.729 52.8199 37.4514 52.8544 37.4053 52.8279Z" fill="#99A53B"/>
<path fill-rule="evenodd" clip-rule="evenodd" d="M18.8802 14.4058C18.6831 14.3636 18.0571 14.1011 17.9486 14.033C17.5435 13.7786 16.1376 12.8629 14.4861 10.3472C13.62 9.02791 13.1357 7.71885 13.271 6.90548C13.4205 6.00662 13.9547 5.28788 14.4947 4.63672C14.9578 4.0783 16.4866 2.85377 17.0964 2.4709C18.1322 1.82054 20.0028 2.28266 20.9486 4.36305C21.0182 4.51607 21.447 6.39167 21.525 6.78648C21.7244 7.79604 22.2119 8.99348 22.9105 9.76124C23.6535 10.5778 24.8159 10.7326 25.8208 10.8456C26.1762 10.8855 28.1747 11.0304 28.6184 11.1534C28.6702 11.1678 28.7456 11.164 28.7684 11.2129C28.801 11.2831 28.636 11.3055 28.5592 11.3121C28.5531 11.3126 26.9171 11.4311 25.9199 11.4815C24.8518 11.5355 22.9671 11.8689 21.6118 10.1222C21.1878 9.57574 21.0368 9.0456 20.8894 8.65067C20.5182 7.65607 20.2548 6.50353 19.9815 5.46966C19.5328 3.7717 18.3817 3.18691 17.621 3.60547C16.7441 4.08798 14.9852 5.71125 14.8223 6.5366C14.7682 6.81068 14.682 6.95819 14.775 7.3735C15.0317 8.52121 15.3449 9.36937 15.8407 10.376C16.2306 11.1675 16.7015 11.8439 17.3407 12.4623C17.7362 12.8449 18.2157 13.1644 18.6828 13.446C18.8915 13.5718 19.145 13.7096 19.3934 13.557C19.8951 13.2487 20.1482 12.3452 20.4592 11.8793C20.5921 11.6801 20.6883 11.4273 20.8539 11.2526C20.8875 11.2172 20.9831 11.1569 20.9921 11.205C21.0687 11.6155 20.909 11.797 20.7947 12.1569C20.5097 13.0543 20.238 14.709 18.8802 14.4058Z" fill="#99A53B"/>
<path fill-rule="evenodd" clip-rule="evenodd" d="M38.2615 61.8076C38.0652 61.5783 37.9497 61.4193 37.8865 61.1254C37.804 60.7417 37.9918 60.083 38.0207 59.9791C38.1045 59.679 38.1749 59.3485 38.3049 59.0629C38.563 58.4962 38.6762 58.3196 38.7984 57.8968C38.8094 57.8587 39.1032 57.2217 38.7865 55.9215C38.5001 54.7455 38.2232 54.5579 38.2339 54.5293C38.246 54.4971 38.2929 54.4537 38.3207 54.4738C38.6626 54.7204 38.7292 54.8443 38.9444 55.2076C39.4581 56.0745 39.7408 56.8922 39.7063 57.8968C39.6935 58.2683 39.5187 58.5135 39.3826 58.8209C39.0752 59.5154 39.1065 60.1408 39.1852 60.4471C39.1899 60.4652 39.4858 60.4524 39.7629 60.3195C40.4445 59.9926 40.6526 59.8252 41.1668 59.3636C41.4738 59.0881 42.0896 58.5064 42.3036 58.1744C42.4089 58.011 43.5138 55.2501 43.5668 55.0093C43.6572 54.5986 43.7799 54.1517 43.4878 53.7995C43.3378 53.6186 43.0485 53.4599 42.8484 53.3434C42.1933 52.9623 39.7236 51.4911 39.6313 51.4197C39.5929 51.3901 39.6895 51.3233 39.7378 51.3206C40.1193 51.2986 43.7005 52.7061 44.1984 52.9904C44.3617 53.0836 44.8141 53.4509 44.8378 53.6686C44.9057 54.2908 44.9 54.619 44.7905 55.2433C44.7789 55.3092 43.8633 58.3641 43.3299 58.9478C43.2299 59.0574 42.8547 59.5384 42.7457 59.6539C42.3227 60.1023 40.0037 61.5549 39.3628 61.7362C39.1824 61.7872 38.9932 61.8034 38.8063 61.8155C38.625 61.8273 38.4431 61.8102 38.2615 61.8076Z" fill="#99A53B"/>
<path fill-rule="evenodd" clip-rule="evenodd" d="M31.9933 46.5333C31.9384 46.5195 30.4226 46.2253 30.0985 46.0018C28.8642 45.1507 29.1173 43.6871 29.1748 42.3448C29.2059 41.6192 29.309 40.8159 29.309 40.1078C29.309 39.4145 29.6885 36.9426 29.3919 36.082C29.3671 36.0099 29.2383 36.0917 29.1669 36.1177C29.0443 36.1623 27.4693 38.0291 27.1222 37.9977C27.0053 37.9871 27.2058 37.6996 27.2367 37.6527C27.4868 37.2726 27.7214 36.8893 27.9472 36.4945C28.2165 36.0236 28.7716 34.8166 29.2301 34.6382C29.5737 34.5046 30.334 34.5206 30.513 34.8683C30.6934 35.2187 30.6906 35.6438 30.6906 36.0384C30.6906 37.1118 30.1407 44.2676 30.1893 44.7167C30.2485 45.2634 30.2816 45.3624 30.8485 45.6448C31.0473 45.7439 31.6352 46.0965 31.8512 46.2001C31.9863 46.265 32.4121 46.4805 32.3604 46.4976C32.2436 46.5362 32.1156 46.5214 31.9933 46.5333Z" fill="#99A53B"/>
<path fill-rule="evenodd" clip-rule="evenodd" d="M18.0119 55.2275C17.8918 54.9862 17.6463 54.9047 17.6013 54.6008C17.533 54.1389 17.5472 53.8713 17.625 53.4069C17.7027 52.9431 19.9712 48.5986 20.1316 48.2824C20.2947 47.9608 20.3753 47.241 20.9526 47.3582C21.0892 47.386 21.1783 47.5245 21.2763 47.624C21.497 47.848 21.4503 48.8133 21.45 48.8377C21.4466 49.1424 21.4313 49.448 21.3908 49.75C21.3867 49.7806 21.3285 49.8392 21.3197 49.8094C21.1981 49.3963 21.2781 48.9169 21.1382 48.5006C21.0801 48.3279 20.8866 48.0752 20.7237 48.2745C20.6273 48.3923 20.6228 48.5767 20.5382 48.6989C20.518 48.728 20.1968 49.5271 20.104 49.7301C19.7591 50.4842 19.4402 51.2515 19.0776 51.9989C19.0165 52.1248 18.7107 52.7267 18.6158 52.923C18.4719 53.2207 18.0109 53.9375 18.2882 54.3152C18.4429 54.5261 20.1534 54.1534 20.5697 53.871C20.8479 53.6823 21.1373 53.5284 21.3711 53.28C21.6212 53.0141 24.2974 50.1337 24.5447 49.7341C24.8622 49.2212 24.104 48.2757 23.9369 48.2189C23.5552 48.0894 23.195 48.9778 23.0645 48.3816C22.9908 48.0451 23.0011 47.6897 22.8947 47.3622C22.8645 47.2692 22.7683 47.2128 22.7132 47.1322C22.4837 46.7964 15.2452 38.8103 14.5934 38.1801C14.2617 37.8594 13.7018 37.3244 13.6263 36.8316C13.4549 35.712 13.8722 35.2835 14.5737 34.5787C14.9698 34.1807 16.2838 33.1176 17.4434 32.068C17.5793 31.9451 20.2938 29.7361 20.4395 29.6088C20.8637 29.2381 22.7401 28.064 22.9763 27.9577C23.8348 27.5717 25.0326 27.2296 25.5679 27.0682C26.0005 26.9378 26.9299 26.6742 27.4145 26.7888C27.5003 26.8091 27.5798 26.8746 27.6237 26.9514C27.9806 27.5765 27.4363 27.8817 27.0276 28.2762C26.848 28.4495 26.6071 28.6082 26.4434 28.7918C26.2306 29.0306 23.0226 31.4485 22.7092 31.7705C22.6069 31.8757 22.0731 32.1991 22.1211 32.1433C22.6994 31.4709 25.8327 28.4519 25.9895 28.2762C26.0134 28.2494 26.1835 28.0621 26.1869 28.0025C26.2054 27.6762 25.4908 27.9049 24.9756 28.0668C24.2371 28.299 23.6997 28.4515 23.0487 28.8949C22.8439 29.0344 19.3181 31.936 19.0776 32.187C18.7663 32.512 16.2709 34.5854 15.9671 34.8246C15.6451 35.0781 15.2439 35.2694 14.9684 35.606C14.8771 35.7176 14.8758 35.9068 14.779 36.0066C14.1543 36.6495 21.2263 43.465 21.3592 43.6497C21.5759 43.9507 21.9055 44.3034 22.3066 44.2129C22.768 44.1089 22.6358 43.0044 22.6247 42.8575C22.5689 42.1152 22.2667 38.8526 21.6079 38.2237C21.3332 37.9615 18.8319 37.0311 18.5763 36.8911C18.1993 36.6844 17.9663 36.1841 18.1697 35.7805C18.3184 35.4854 18.7117 34.9821 19.0776 34.9277C19.4653 34.8701 24.8842 33.8302 25.3579 33.7378C26.4864 33.5176 27.5369 33.1244 28.6145 32.7581C28.8572 32.6757 30.0359 32.0326 30.2369 30.8979C30.4313 29.8005 30.5515 28.9201 30.5013 27.8002C30.4259 26.1182 30.0661 20.9133 29.9013 20.0222C29.844 19.7122 29.8215 18.9303 29.8697 18.753C29.8791 18.7187 29.9528 18.6719 29.9645 18.7054C30.0595 18.9762 31.3379 26.1371 31.5197 28.3793C31.638 29.8374 31.4453 31.2182 31.3776 31.4175C31.2894 31.6775 30.9257 32.4146 30.8487 32.5201C30.7671 32.632 30.2185 33.2045 30.0119 33.3412C29.5667 33.6356 29.18 33.9044 28.6776 34.0908C28.175 34.2773 26.0304 34.7545 25.7842 34.8048C24.9469 34.9757 21.0655 35.8147 20.6566 35.8995C20.4098 35.9506 20.1072 35.9523 20.025 36.2763C19.993 36.4025 21.4563 36.9374 21.6869 37.014C21.9481 37.1008 22.4607 37.2732 22.654 37.5217C22.7041 37.5862 22.8804 37.9774 22.9382 38.1008C23.1348 38.5207 23.3651 41.5858 23.4154 42.6451C23.4386 43.1321 23.4291 43.8246 23.4237 44.3121C23.4224 44.4275 23.3447 44.5338 23.3447 44.6492C23.3447 44.7647 23.4012 44.8732 23.4237 44.9864C23.653 46.1386 24.1117 46.6115 24.8645 47.4733C25.0461 47.6812 25.1995 47.9145 25.3776 48.1198C25.538 48.3045 25.8272 48.5424 25.8395 48.8258C25.8524 49.123 25.8501 49.4211 25.8355 49.7182C25.8306 49.8189 25.6046 50.1256 25.5671 50.1862C25.286 50.6413 23.2703 52.6723 23.2066 52.7287C22.8909 53.0078 21.7038 54.2074 21.3197 54.4421C20.789 54.7665 20.0635 54.9541 19.8947 55.0371C19.8438 55.0622 19.2033 55.2549 18.9815 55.2734C18.4919 55.3145 18.5496 55.2545 18.0119 55.2275Z" fill="#99A53B"/>
<path fill-rule="evenodd" clip-rule="evenodd" d="M40.3971 54.065C40.3608 54.0027 40.1395 53.724 40.0932 53.6644C40.0032 53.5488 35.8132 47.3875 35.2932 46.7154C34.6087 45.8308 32.4941 44.708 32.4471 44.6608C32.4188 44.6324 34.0384 44.8431 34.2353 44.8711C34.8124 44.953 35.5578 45.516 35.9445 45.9063C36.7947 46.7644 40.4171 53.7617 40.4879 53.958C40.5041 54.0028 40.4537 54.069 40.3971 54.065Z" fill="#B6C358"/>
<path fill-rule="evenodd" clip-rule="evenodd" d="M28.1051 20.0419C28.0717 19.8965 28.0094 19.7547 28.0065 19.6056C27.9984 19.2037 28.4374 17.4014 28.6657 17.0037C29.2793 15.9341 30.6134 15.5432 31.717 15.195C33.0662 14.7693 34.5943 14.3263 35.313 14.1003C36.1849 13.8261 36.9794 13.7403 37.3933 13.7869C37.4378 13.792 37.3049 13.8132 37.2709 13.8425C37.1692 13.9301 30.6897 16.4951 30.513 16.5912C29.9267 16.9099 29.9208 16.959 29.6644 17.3368C29.3385 17.8169 29.1412 18.86 28.9933 19.2208C28.8572 19.5529 28.4908 20.128 28.1051 20.0419Z" fill="#B6C358"/>
<path fill-rule="evenodd" clip-rule="evenodd" d="M22.9502 25.7454C22.6596 25.5376 18.7697 22.8779 18.7226 22.8619C18.5949 22.8184 18.4171 22.3824 18.4068 22.2629C18.3763 21.9088 18.7923 21.7919 19.0542 21.8703C19.8736 22.1156 19.9721 22.2145 20.4989 22.4652C20.8055 22.6112 21.0318 22.7344 21.0318 22.4652C21.0318 22.4035 20.4996 21.971 20.2621 21.8306C19.5167 21.3901 18.8485 20.8399 18.0989 20.4107C17.9172 20.3066 17.6573 20.1135 17.4515 20.0854C17.2617 20.0595 17.0706 20.0263 16.8792 20.0339C16.6638 20.0424 15.7694 20.694 15.4028 20.9342C14.6885 21.4024 14.0273 21.952 13.3463 22.4652C12.9912 22.7328 12.052 23.4198 11.9489 23.4965C11.6902 23.689 11.4407 23.7986 11.1081 23.8138C11.0698 23.8155 10.7494 23.8416 10.6463 23.7345C10.4804 23.5623 10.4075 23.2628 10.3897 23.0443C10.3735 22.846 10.4914 22.6554 10.5871 22.4811C10.8202 22.0565 11.0799 21.6491 11.3371 21.2357C11.4575 21.0421 12.8442 18.1358 12.9555 17.9396C13.0163 17.8324 13.0523 17.5558 13.0502 17.4835C13.0292 16.7698 12.5211 16.9983 12.3357 16.4879C12.1951 16.1005 12.2201 15.7653 12.4028 15.421C12.5485 15.1466 14.6715 13.7167 14.7713 13.652C15.0912 13.4446 15.2987 13.2539 15.7107 13.3664C15.9223 13.4242 16.0186 13.7874 16.0305 13.9416C16.0598 14.3209 15.7643 14.9544 15.5647 15.2703C15.3389 15.6276 14.911 16.1263 14.9292 16.5911C14.9498 17.1202 16.6072 18.3066 16.7489 18.3323C17.0286 18.383 17.3188 18.3737 17.6015 18.3442C17.6914 18.3348 19.3156 17.1056 19.5121 16.9679C19.7028 16.8342 20.659 16.1219 20.8542 15.9961C21.1145 15.8283 21.3644 15.6482 21.6278 15.4805C21.9308 15.2877 22.6711 14.7229 22.7686 14.6912C23.4456 14.4714 23.4852 14.5384 24.016 14.6833C24.7625 14.887 25.295 15.5281 25.4608 15.7353C25.9076 16.2936 26.1035 17.1191 24.766 18.3164C24.4022 18.6421 24.0169 18.9278 23.7594 19.0026C23.358 19.1193 22.2931 19.3881 22.2989 19.2882C22.3051 19.1817 23.228 18.8947 23.4895 18.727C24.0344 18.3776 25.0126 17.6686 25.1726 17.0512C25.3517 16.36 24.8046 15.7973 24.2528 15.5202C24.0495 15.418 23.7712 15.2799 23.5423 15.2822C23.313 15.2845 23.1067 15.4217 22.9107 15.5202C22.1144 15.9202 18.9202 18.455 18.7028 18.6734C18.668 18.7084 18.5409 18.7837 18.5213 18.8519C18.285 19.673 19.0912 20.0411 19.5809 20.3891C20.1658 20.8048 22.6422 22.6577 23.0844 22.9809C23.2392 23.094 25.5367 24.7642 25.6739 24.9204C25.7122 24.964 25.7949 25.081 25.7371 25.083C25.5109 25.0909 21.3612 23.5498 21.0555 23.4489C20.9007 23.3978 20.738 23.2332 20.5778 23.4172C20.5561 23.4421 20.6405 23.5206 20.6568 23.5361C20.7944 23.6678 22.7929 25.4218 22.8515 25.4797C22.9041 25.5315 22.9483 25.5912 22.9976 25.6462C23.0324 25.6852 23.1588 25.745 23.1081 25.7573C23.0568 25.7698 23.0028 25.7494 22.9502 25.7454ZM12.2371 21.8385C12.2384 21.6746 12.2168 21.5089 12.241 21.3467C12.2542 21.2581 13.6133 18.4981 14.0371 18.1657C14.2066 18.0327 14.3202 18.0397 14.4949 18.0983C14.6353 18.1453 15.8931 19.0976 15.9199 19.189C16.0261 19.55 15.589 19.8382 15.3594 20.0259C15.0655 20.2663 13.0063 21.6362 12.9357 21.664C12.8659 21.6916 12.4465 22.1064 12.2371 21.8385Z" fill="#99A53B"/>
<path fill-rule="evenodd" clip-rule="evenodd" d="M49.4803 22.7947C49.3182 22.6054 48.1885 21.9691 48.0711 21.8705C47.8397 21.6761 47.6111 21.4713 47.3764 21.2756C47.1873 21.1178 46.1324 20.213 46.0343 20.0976C45.578 19.5611 45.0777 18.8877 44.7514 18.2572C44.3509 17.4832 43.9607 16.7711 43.3303 16.1511C43.135 15.9589 41.8273 15.375 41.4238 15.2428C41.337 15.2143 40.801 15.0227 40.804 14.9413C40.8101 14.7767 41.951 15.1923 42.304 15.2031C42.4554 15.2077 42.6373 15.2752 42.758 15.1833C42.9574 15.0313 41.7883 12.4106 40.6856 12.2244C40.3604 12.1694 37.3855 12.2974 36.1817 12.3473C35.1791 12.3889 25.0272 13.0088 24.7659 13.0613C24.7263 13.0692 24.5213 13.1269 24.5093 13.1763C24.4238 13.5296 24.8598 13.6792 25.1251 13.8347C25.3237 13.9511 26.5966 14.6985 26.7001 14.8025C26.7707 14.8735 27.1353 15.0261 27.1304 15.1515C27.123 15.3372 26.8757 15.1929 26.8185 15.1634C26.6541 15.0789 24.5687 14.1287 24.2132 13.8347C23.9078 13.5821 23.5669 13.3337 23.7001 12.8987C23.8002 12.5716 24.251 12.4942 24.5093 12.4624C24.9367 12.4097 27.5686 12.1695 28.4567 12.0657C28.8991 12.014 40.2887 10.9371 41.6685 11.1138C41.794 11.1299 42.3108 11.1635 42.5968 11.6056C42.7167 11.7909 43.8817 14.0841 43.9303 14.1956C44.0922 14.5668 44.2383 14.9375 44.4751 15.2745C44.7595 15.6793 45.2491 16.1493 45.7027 16.3732C45.9226 16.4817 46.6977 16.7153 46.8553 16.7579C47.0467 16.8097 48.5772 17.3379 48.683 17.3687C49.2072 17.5215 50.2121 17.9629 50.3567 18.3762C50.7017 19.3622 50.8343 19.5633 50.8343 20.8155C50.8343 21.2996 50.8185 21.7837 50.7948 22.2672C50.7917 22.3303 50.7098 22.7322 50.6172 22.759C50.4327 22.8123 50.2367 22.8164 50.0448 22.8225C49.8565 22.8284 49.6685 22.8039 49.4803 22.7947ZM49.4488 21.5691C49.1522 21.3136 48.0607 20.5369 47.9132 20.4159C47.701 20.2419 47.1627 19.8888 46.6592 19.1905C46.0943 18.4069 45.9519 18.0075 45.7817 17.6226C45.7199 17.4829 45.7815 17.1915 45.9711 17.1466C46.06 17.1256 46.2953 17.2084 46.3698 17.222C46.5876 17.2618 48.1564 17.9138 48.4264 18.0589C48.5081 18.1028 49.1372 18.3638 49.5192 18.6333C49.7187 18.7741 49.8912 18.9852 49.9382 19.0901C50.1602 19.585 50.1103 20.0466 50.0969 20.5863C50.0858 21.0299 49.9823 21.3588 49.8223 21.4675C49.61 21.6118 49.608 21.5162 49.4488 21.5691Z" fill="#99A53B"/>
</svg>
