<svg width="48" height="48" viewBox="0 0 48 48" fill="none" xmlns="http://www.w3.org/2000/svg">
<mask id="mask0_492_845" style="mask-type:alpha" maskUnits="userSpaceOnUse" x="0" y="0" width="48" height="48">
<rect width="48" height="48" fill="#D9D9D9"/>
</mask>
<g mask="url(#mask0_492_845)">
<path d="M17.7 44C15.8333 44 14.0667 43.6583 12.4 42.975C10.7333 42.2917 9.25 41.3 7.95 40C6.68333 38.7333 5.70833 37.275 5.025 35.625C4.34167 33.975 4 32.2 4 30.3C4 27.6333 4.69167 25.2 6.075 23C7.45833 20.8 9.3 19.1667 11.6 18.1C12.2667 16.7 13.15 15.45 14.25 14.35C15.35 13.25 16.6333 12.3333 18.1 11.6C19.1667 9.23333 20.7917 7.375 22.975 6.025C25.1583 4.675 27.6167 4 30.35 4C32.2167 4 33.975 4.34167 35.625 5.025C37.275 5.70833 38.7333 6.7 40 8C41.2667 9.3 42.25 10.7667 42.95 12.4C43.65 14.0333 44 15.7833 44 17.65C44 20.45 43.3583 22.8917 42.075 24.975C40.7917 27.0583 38.9 28.7 36.4 29.9C35.7333 31.3667 34.8583 32.6417 33.775 33.725C32.6917 34.8083 31.4 35.7 29.9 36.4C28.8333 38.7667 27.2083 40.625 25.025 41.975C22.8417 43.325 20.4 44 17.7 44ZM17.7 41C19.2 41 20.6417 40.675 22.025 40.025C23.4083 39.375 24.5333 38.5167 25.4 37.45C23.3 37.6833 21.2917 37.475 19.375 36.825C17.4583 36.175 15.7667 35.1333 14.3 33.7C12.8333 32.2667 11.7833 30.5833 11.15 28.65C10.5167 26.7167 10.3167 24.7 10.55 22.6C9.45 23.4667 8.58333 24.5917 7.95 25.975C7.31667 27.3583 7 28.8 7 30.3C7 31.8 7.26667 33.2 7.8 34.5C8.33333 35.8 9.1 36.9333 10.1 37.9C11.1 38.8667 12.2417 39.625 13.525 40.175C14.8083 40.725 16.2 41 17.7 41ZM24 34.65C25.5 34.65 26.9333 34.3333 28.3 33.7C29.6667 33.0667 30.8167 32.2 31.75 31.1C29.65 31.3333 27.65 31.1083 25.75 30.425C23.85 29.7417 22.1833 28.6667 20.75 27.2C19.2833 25.7 18.2167 23.9917 17.55 22.075C16.8833 20.1583 16.6833 18.15 16.95 16.05C15.6167 17.3167 14.6833 18.5417 14.15 19.725C13.6167 20.9083 13.35 22.3333 13.35 24C13.35 25.4667 13.6167 26.85 14.15 28.15C14.6833 29.45 15.45 30.6 16.45 31.6C17.4167 32.5667 18.55 33.3167 19.85 33.85C21.15 34.3833 22.5333 34.65 24 34.65ZM30.55 28.2C31.1167 28.2 31.6917 28.1417 32.275 28.025C32.8583 27.9083 33.4833 27.7167 34.15 27.45C34.85 25.4833 34.9667 23.5417 34.5 21.625C34.0333 19.7083 33.05 18 31.55 16.5C30.15 15.1 28.3917 14.15 26.275 13.65C24.1583 13.15 22.2 13.2167 20.4 13.85C20.2333 14.4167 20.1083 15 20.025 15.6C19.9417 16.2 19.9 16.8833 19.9 17.65C19.9 19.05 20.1667 20.4 20.7 21.7C21.2333 23 22 24.1667 23 25.2C24 26.2667 25.15 27.0333 26.45 27.5C27.75 27.9667 29.1167 28.2 30.55 28.2ZM37.7 25.5C38.8333 24.5333 39.6667 23.4167 40.2 22.15C40.7333 20.8833 41 19.3833 41 17.65C41 16.2167 40.7333 14.8583 40.2 13.575C39.6667 12.2917 38.9 11.15 37.9 10.15C36.8667 9.11667 35.7083 8.33333 34.425 7.8C33.1417 7.26667 31.7833 7 30.35 7C28.7167 7 27.2333 7.275 25.9 7.825C24.5667 8.375 23.3667 9.23333 22.3 10.4C24.4 10.1667 26.4333 10.3917 28.4 11.075C30.3667 11.7583 32.1167 12.85 33.65 14.35C35.1833 15.85 36.3 17.5583 37 19.475C37.7 21.3917 37.9333 23.4 37.7 25.5Z" fill="#99A53B"/>
</g>
</svg>
